<?xml version="1.0" standalone="no"?><!DOCTYPE svg PUBLIC "-//W3C//DTD SVG 1.1//EN" "http://www.w3.org/Graphics/SVG/1.1/DTD/svg11.dtd"><svg t="1678093510130" class="icon" viewBox="0 0 1024 1024" version="1.1" xmlns="http://www.w3.org/2000/svg" p-id="1588" width="48" height="48" xmlns:xlink="http://www.w3.org/1999/xlink"><path d="M512 341.333333c-70.4 0-128 57.6-128 128s57.6 128 128 128 128-57.6 128-128-57.6-128-128-128z" fill="#666767" p-id="1589"></path><path d="M981.333333 469.333333C981.333333 211.2 772.266667 0 512 0S42.666667 211.2 42.666667 469.333333c0 219.733333 151.466667 405.333333 356.266666 454.4L343.466667 981.333333h-123.733334c-10.666667 0-19.2 8.533333-19.2 21.333334s8.533333 21.333333 19.2 21.333333h599.466667c10.666667 0 19.2-8.533333 19.2-21.333333s-8.533333-21.333333-19.2-21.333334h-138.666667l-55.466666-55.466666C829.866667 874.666667 981.333333 691.2 981.333333 469.333333zM512 128c12.8 0 21.333333 8.533333 21.333333 21.333333s-8.533333 21.333333-21.333333 21.333334-21.333333-8.533333-21.333333-21.333334 8.533333-21.333333 21.333333-21.333333z m0 512c-93.866667 0-170.666667-76.8-170.666667-170.666667s76.8-170.666667 170.666667-170.666666 170.666667 76.8 170.666667 170.666666-76.8 170.666667-170.666667 170.666667z" fill="#666767" p-id="1590"></path></svg>