<svg width="42" height="42" xmlns="http://www.w3.org/2000/svg" xml:space="preserve" version="1.1" enable-background="new 0 0 52 52">

 <g>
  <title>Layer 1</title>
  <g stroke="null" id="svg_1">
   <g stroke="null" id="svg_2">
    <path fill="#8b42f7" stroke="null" id="svg_3" d="m25.35243,16.58054c2.09194,0 3.78636,-1.58127 3.78636,-3.5336c0,-1.94344 -1.69444,-3.5336 -3.78636,-3.5336c-2.08251,0 -3.78636,1.59017 -3.78636,3.5336c0,1.95233 1.70385,3.5336 3.78636,3.5336z"/>
   </g>
   <g stroke="null" id="svg_4">
    <path fill="#8b42f7" stroke="#dac2fc" id="svg_5" d="m38.06885,30.08875c-0.99766,1.24455 -2.15086,2.39242 -3.45566,3.41104c-3.89776,3.06646 -8.86967,4.75778 -13.99365,4.75778c-4.97053,0 -9.64987,-1.52611 -13.53283,-4.41313c-1.49737,-1.1098 -2.80517,-2.38077 -3.91936,-3.76955c-2.21107,1.20243 -3.37143,2.63106 -3.37143,4.2091c0,4.87725 10.72957,7.50891 20.82501,7.50891s20.825,-2.63166 20.825,-7.50891c0,-1.55205 -1.18964,-2.99145 -3.37708,-4.19524z"/>
    <path stroke="null" id="svg_8" d="m19.64,60.5469l0.56913,0l0.17587,-0.54067l0.17587,0.54067l0.56913,0l-0.46044,0.33415l0.17588,0.54067l-0.46044,-0.33416l-0.46044,0.33416l0.17588,-0.54067l-0.46044,-0.33415z" fill="#ffffff"/>
    <path stroke="null" id="svg_9" d="m52.94204,47.9571l0.56913,0l0.17587,-0.54067l0.17587,0.54067l0.56913,0l-0.46044,0.33415l0.17588,0.54067l-0.46044,-0.33416l-0.46044,0.33416l0.17588,-0.54067l-0.46044,-0.33415z" fill="#ffffff"/>
   </g>
   <g stroke="null" id="svg_6">
    <path stroke="null" id="svg_7" fill="#F93E2B" d="m8.26642,32.87045c3.5403,2.63258 7.80938,4.02831 12.35305,4.02831c4.68559,0 9.21979,-1.54595 12.77898,-4.34632c4.5152,-3.52476 7.09943,-8.70148 7.09943,-14.20511c0,-10.22974 -8.91693,-18.55142 -19.87842,-18.55142c-10.96154,0 -19.87842,8.32168 -19.87842,18.55142c0,5.6891 2.74509,10.98073 7.52536,14.52311zm12.35305,-25.12392c6.26643,0 11.35909,4.75271 11.35909,10.60081c0,5.84817 -5.09266,10.60081 -11.35909,10.60081s-11.35909,-4.75264 -11.35909,-10.60081c0,-5.84811 5.09267,-10.60081 11.35909,-10.60081z"/>
   </g>
  </g>
 </g>
</svg>